<?xml version="1.0" standalone="no"?>
<!DOCTYPE svg PUBLIC "-//W3C//DTD SVG 20010904//EN"
 "http://www.w3.org/TR/2001/REC-SVG-20010904/DTD/svg10.dtd">
<svg version="1.0" xmlns="http://www.w3.org/2000/svg"
 width="855.000000pt" height="859.000000pt" viewBox="0 0 855.000000 859.000000"
 preserveAspectRatio="xMidYMid meet">
<metadata>
Created by potrace 1.16, written by Peter Selinger 2001-2019
</metadata>
<g transform="translate(0.000000,859.000000) scale(0.100000,-0.100000)"
fill="#000000" stroke="none">
<path d="M2343 6109 c-104 -50 -179 -167 -209 -329 -14 -75 -14 -88 0 -154 43
-188 170 -346 279 -346 87 0 227 82 294 173 58 80 83 164 83 281 -1 105 -11
158 -45 231 -41 87 -80 123 -163 150 -100 34 -161 32 -239 -6z"/>
<path d="M5972 5862 c-63 -23 -108 -64 -167 -152 -98 -147 -107 -265 -39 -481
46 -145 130 -200 285 -185 172 16 239 77 310 286 41 120 46 243 14 330 -56
154 -256 254 -403 202z"/>
<path d="M2785 4430 c-209 -37 -423 -128 -627 -264 -191 -128 -338 -270 -474
-461 -139 -194 -295 -476 -384 -695 -128 -311 -253 -485 -408 -568 -118 -63
-145 -136 -77 -211 47 -51 118 -80 340 -135 446 -112 544 -127 878 -133 467
-9 761 41 1032 175 226 111 448 318 630 587 87 129 259 417 370 620 48 88 90
164 95 168 4 5 36 -38 70 -95 246 -402 521 -753 703 -896 184 -145 485 -268
819 -336 236 -48 668 -78 818 -57 431 61 930 285 1059 476 46 68 41 94 -28
162 -24 23 -62 37 -133 48 -21 3 -71 28 -111 55 -111 74 -190 165 -277 318
-232 408 -561 782 -870 989 -237 159 -584 273 -829 273 -113 0 -322 -33 -403
-63 -35 -14 -91 -39 -124 -58 -103 -57 -353 -227 -522 -355 -89 -68 -165 -124
-168 -124 -2 0 -57 44 -122 98 -297 249 -478 378 -607 432 -168 69 -431 90
-650 50z"/>
</g>
</svg>
